<?xml version="1.0" standalone="no"?>
<!DOCTYPE svg PUBLIC "-//W3C//DTD SVG 20010904//EN"
 "http://www.w3.org/TR/2001/REC-SVG-20010904/DTD/svg10.dtd">
<svg version="1.0" xmlns="http://www.w3.org/2000/svg"
 width="16.000000pt" height="16.000000pt" viewBox="0 0 16.000000 16.000000"
 preserveAspectRatio="xMidYMid meet">
<metadata>
Created by potrace 1.11, written by Peter Selinger 2001-2013
</metadata>
<g transform="translate(0.000000,16.000000) scale(0.003125,-0.003125)"
fill="#000000" stroke="none">
<path d="M253 4140 c-102 -36 -181 -110 -229 -215 -18 -38 -19 -97 -22 -1320
-3 -937 0 -1298 8 -1347 20 -116 93 -209 210 -266 l55 -27 2250 -3 c1732 -2
2264 0 2309 9 73 15 163 74 212 137 19 25 43 75 54 111 20 65 20 92 18 1367
l-3 1300 -33 65 c-41 78 -102 138 -179 176 l-58 28 -2270 2 c-2188 1 -2272 1
-2322 -17z m1267 -940 l240 -320 240 320 240 320 320 0 320 0 0 -960 0 -959
-320 -1 -320 0 0 477 -1 478 -32 -39 c-18 -22 -124 -157 -236 -300 -112 -144
-207 -261 -211 -261 -5 0 -30 27 -55 60 -71 93 -85 110 -207 265 -62 80 -137
176 -166 213 l-52 68 0 -480 0 -481 -320 0 -320 0 0 960 0 960 320 0 320 0
240 -320z m2640 -160 l0 -480 240 0 240 0 -228 -317 c-126 -175 -262 -364
-303 -421 -73 -102 -114 -158 -218 -305 l-54 -77 -49 68 c-26 37 -65 92 -87
122 -59 82 -429 602 -553 778 l-108 152 240 0 240 0 0 480 0 480 320 0 320 0
0 -480z"/>
</g>
</svg>
